# xmcd
# 
# Track frame offsets:
#     183
#     14988
#     28668
#     39128
#     55158
#     71168
#     85653
#     96108
#     105883
#     115828
#     139188
#     152093
#     162970
#     176363
# 
# Disc length: 2519
# 
# Revision: 3
# Processed by: cddbd v1.5.2PL0 Copyright (c) Steve Scherf et al.
# Submitted via: fre:ac v1.0.31
# 
DISCID=ac09d50e
DTITLE=Johnny Hill - Tom Astor - Freddy Quinn - Trucker Weihnacht
DYEAR=0
DGENRE=
TTITLE0=Tom Astor and Trucker Chor - Ein Bäumchen Mit 10 Bunten Kerzen
TTITLE1=Tom Astor and Jill Morris - n Bethlehem (Oh Little Town Of Bethlehem)
TTITLE2=Freddy Quinn - Ave Maria
TTITLE3=Tom Astor - Frieden Bleibt Ein Weihnachtstraum
TTITLE4=Tom Astor, Jill Morris and der Fredeburger Kinderchor - Süßer Die Glocken Nie Klingen
TTITLE5=Jonny Hill - Oh Du Fröhliche
TTITLE6=Tom Astor - Der Weihnachtsmann, Der Fährt 'nen Großen Truck
TTITLE7=Freddy Quinn - Jingle Bells
TTITLE8=Jonny Hill - Leise Rieselt Der Schnee
TTITLE9=Freddy Quinn - Stille Nacht, Heilige Nacht
TTITLE10=Jonny Hill - Heidschi Bumbeidschi
TTITLE11=Freddy Quinn - Morgen, Kinder, Wird's Was Geben
TTITLE12=Jonny Hill - O Tannenbaum
TTITLE13=Tom Astor and Jill Morris - Weihnachten Zu Hause Sein
EXTD=Karussell 513
EXTT0=
EXTT1=
EXTT2=
EXTT3=
EXTT4=
EXTT5=
EXTT6=
EXTT7=
EXTT8=
EXTT9=
EXTT10=
EXTT11=
EXTT12=
EXTT13=
PLAYORDER=
